<mxfile host="app.diagrams.net" modified="2023-12-28T13:03:03.475Z" agent="Mozilla/5.0 (Windows NT 10.0; Win64; x64) AppleWebKit/537.36 (KHTML, like Gecko) Chrome/120.0.0.0 Safari/537.36 Edg/120.0.0.0" etag="TtwPSe_l61kYdqsdHiqu" version="22.1.15" type="github">
  <diagram name="第 1 页" id="k1N-Jhh_7VJlwTQ27Jjc">
    <mxGraphModel dx="1426" dy="751" grid="1" gridSize="10" guides="1" tooltips="1" connect="1" arrows="1" fold="1" page="1" pageScale="1" pageWidth="827" pageHeight="1169" math="0" shadow="0">
      <root>
        <mxCell id="0" />
        <mxCell id="1" parent="0" />
        <mxCell id="atgfnX5Mf4vHV1UWBj40-1" value="供貨商" style="html=1;whiteSpace=wrap;" vertex="1" parent="1">
          <mxGeometry x="310" y="540" width="60" height="30" as="geometry" />
        </mxCell>
        <mxCell id="atgfnX5Mf4vHV1UWBj40-2" value="供貨商編號" style="ellipse;whiteSpace=wrap;html=1;" vertex="1" parent="1">
          <mxGeometry x="310" y="470" width="70" height="30" as="geometry" />
        </mxCell>
        <mxCell id="atgfnX5Mf4vHV1UWBj40-3" value="供貨商名稱" style="ellipse;whiteSpace=wrap;html=1;" vertex="1" parent="1">
          <mxGeometry x="420" y="540" width="70" height="30" as="geometry" />
        </mxCell>
        <mxCell id="atgfnX5Mf4vHV1UWBj40-4" value="電話" style="ellipse;whiteSpace=wrap;html=1;" vertex="1" parent="1">
          <mxGeometry x="305" y="618" width="70" height="30" as="geometry" />
        </mxCell>
        <mxCell id="atgfnX5Mf4vHV1UWBj40-5" value="地址" style="ellipse;whiteSpace=wrap;html=1;" vertex="1" parent="1">
          <mxGeometry x="190" y="550" width="70" height="30" as="geometry" />
        </mxCell>
        <mxCell id="atgfnX5Mf4vHV1UWBj40-6" value="" style="endArrow=none;html=1;rounded=0;exitX=1;exitY=0.5;exitDx=0;exitDy=0;entryX=0;entryY=0.5;entryDx=0;entryDy=0;" edge="1" parent="1" source="atgfnX5Mf4vHV1UWBj40-1" target="atgfnX5Mf4vHV1UWBj40-3">
          <mxGeometry relative="1" as="geometry">
            <mxPoint x="260" y="490" as="sourcePoint" />
            <mxPoint x="390" y="520" as="targetPoint" />
          </mxGeometry>
        </mxCell>
        <mxCell id="atgfnX5Mf4vHV1UWBj40-7" value="" style="endArrow=none;html=1;rounded=0;exitX=0.5;exitY=1;exitDx=0;exitDy=0;entryX=0.5;entryY=0;entryDx=0;entryDy=0;" edge="1" parent="1" source="atgfnX5Mf4vHV1UWBj40-1" target="atgfnX5Mf4vHV1UWBj40-4">
          <mxGeometry relative="1" as="geometry">
            <mxPoint x="355" y="580" as="sourcePoint" />
            <mxPoint x="360" y="640" as="targetPoint" />
          </mxGeometry>
        </mxCell>
        <mxCell id="atgfnX5Mf4vHV1UWBj40-8" value="" style="endArrow=none;html=1;rounded=0;exitX=0;exitY=0.5;exitDx=0;exitDy=0;entryX=1;entryY=0.5;entryDx=0;entryDy=0;" edge="1" parent="1" source="atgfnX5Mf4vHV1UWBj40-1" target="atgfnX5Mf4vHV1UWBj40-5">
          <mxGeometry relative="1" as="geometry">
            <mxPoint x="330" y="580" as="sourcePoint" />
            <mxPoint x="295" y="614" as="targetPoint" />
          </mxGeometry>
        </mxCell>
        <mxCell id="atgfnX5Mf4vHV1UWBj40-9" value="" style="endArrow=none;html=1;rounded=0;exitX=0.5;exitY=0;exitDx=0;exitDy=0;entryX=0.5;entryY=1;entryDx=0;entryDy=0;" edge="1" parent="1" source="atgfnX5Mf4vHV1UWBj40-1" target="atgfnX5Mf4vHV1UWBj40-2">
          <mxGeometry relative="1" as="geometry">
            <mxPoint x="330" y="565" as="sourcePoint" />
            <mxPoint x="260" y="565" as="targetPoint" />
          </mxGeometry>
        </mxCell>
      </root>
    </mxGraphModel>
  </diagram>
</mxfile>
